<svg xmlns="http://www.w3.org/2000/svg" viewBox="0 0 600 360">
  <rect width="600" height="360" fill="#dce9f5"/>
  <rect y="310" width="600" height="50" fill="#b9c3cd"/>
  <rect x="120" y="90" width="230" height="220" fill="#e8dcc8"/>
  <g fill="#7fa8d1">
    <rect x="145" y="115" width="35" height="30"/><rect x="218" y="115" width="35" height="30"/><rect x="290" y="115" width="35" height="30"/>
    <rect x="145" y="175" width="35" height="30"/><rect x="218" y="175" width="35" height="30"/><rect x="290" y="175" width="35" height="30"/>
    <rect x="145" y="235" width="35" height="30"/><rect x="290" y="235" width="35" height="30"/>
  </g>
  <g stroke="#c08a2a" stroke-width="6">
    <line x1="110" y1="80" x2="110" y2="310"/><line x1="360" y1="80" x2="360" y2="310"/>
    <line x1="105" y1="160" x2="365" y2="160"/><line x1="105" y1="225" x2="365" y2="225"/>
  </g>
  <rect x="440" y="40" width="14" height="270" fill="#f0c46c"/>
  <rect x="330" y="40" width="200" height="14" fill="#f0c46c"/>
  <line x1="360" y1="54" x2="360" y2="80" stroke="#555" stroke-width="3"/>
  <rect x="420" y="250" width="55" height="60" fill="#c08a2a"/>
</svg>
